<svg width="1536" height="2048" viewBox="0 0 1536 2048" fill="none" xmlns="http://www.w3.org/2000/svg">
<rect width="1536" height="2048" fill="#E5E5E5"/>
<g id="mountain 1">
<g clip-path="url(#clip0)">
<g id="Layer 2">
<g id="baclground">
<path id="Vector" fill-rule="evenodd" clip-rule="evenodd" d="M1536 -2.58494V2036.08C1536 2036.86 1535.55 2037.5 1535 2037.5H1C0.45 2037.5 0 2036.86 0 2036.08V-2.58494C0 -3.36646 0.45 -4 1 -4H1535C1535.55 -4 1536 -3.36646 1536 -2.58494Z" fill="url(#paint0_radial)"/>
</g>
</g>
<g id="Layer 1">
<g id="mountainShape">
<path id="Vector_2" fill-rule="evenodd" clip-rule="evenodd" d="M664.83 888.693C664.83 888.693 759.65 381.095 821.242 381.496C879.982 381.879 905.146 577.406 927.48 609.051C927.48 609.051 937.296 631.958 945.583 614.448C951.716 601.488 946.303 607.301 959.274 575.856C972.244 544.41 990.757 545.391 1002.87 586.576C1002.87 586.576 1010.33 597.611 1035.99 727.342C1073.04 914.686 1152.66 1100.42 1202.57 1179.05C1202.57 1179.05 1366.6 1496.97 1536 1442.77V1730.1L883.291 1221.6L664.83 888.693Z" fill="url(#paint1_linear)"/>
<path id="Vector_3" fill-rule="evenodd" clip-rule="evenodd" d="M923.611 838.294C923.611 838.294 855.369 753.199 835.269 727.219C791.039 670.048 787.368 625.24 750.194 714.592C750.194 714.592 729.232 783.206 708.145 792.551C687.057 801.897 685.209 732.781 643.447 732.497C601.685 732.213 425.99 1236.8 429.34 1336.7L791.657 1371.01L923.611 838.294Z" fill="url(#paint2_linear)"/>
<path id="Vector_4" fill-rule="evenodd" clip-rule="evenodd" d="M1535.9 1532.36C1535.9 1532.36 1378.12 1581.77 1213.46 1342.87C1196.61 1318.41 1119.42 1232.85 1076.22 1098.25C1070.73 1081.15 938.599 735.598 876.258 735.598C781.281 735.598 707.091 1151.5 704.955 1161.99C702.818 1172.49 676.452 1331.86 676.452 1337.85C676.452 1374.27 1242.84 1602.7 1242.84 1602.7L1535.9 1730.11V1532.36Z" fill="url(#paint3_linear)"/>
<path id="Vector_5" fill-rule="evenodd" clip-rule="evenodd" d="M1535.9 1701.8C1535.9 1701.8 1287.2 1615.89 1125.35 1402.56C1078.19 1340.41 1064.37 1267.04 1002.39 1126.01C942.501 989.742 903.303 863.864 849.714 892.903C796.125 921.942 790.645 1024.12 781.843 1081.73C773.042 1139.34 757.832 1264.28 755.549 1292.16C754.191 1308.74 1535.9 1859.95 1535.9 1859.95V1701.8Z" fill="url(#paint4_linear)"/>
<path id="Vector_6" fill-rule="evenodd" clip-rule="evenodd" d="M367.71 1247.63C367.71 1247.63 336.53 1293.79 323.56 1335.12C323.56 1335.12 320.99 1350.92 278.16 1372.24C254.93 1383.81 234.29 1543.55 233.96 1553.7C230.32 1663.81 158.57 1769.09 158.57 1772.45C158.57 1775.8 97.76 1857.04 56.5 1905.07C15.23 1953.11 0 2048 0 2048H1536L1535.9 1929.65L712.049 1410.22L367.71 1247.63Z" fill="url(#paint5_linear)"/>
<path id="Vector_7" fill-rule="evenodd" clip-rule="evenodd" d="M510.87 1247.63C510.87 1247.63 479.69 1293.79 466.72 1335.12C466.72 1335.12 464.15 1350.92 421.32 1372.24C398.09 1383.81 377.45 1543.55 377.12 1553.7C373.48 1663.81 301.73 1769.09 301.73 1772.45C301.73 1775.8 240.92 1857.04 199.66 1905.07C158.39 1953.11 143.16 2048 143.16 2048H1536V1859.95L855.209 1410.22L510.87 1247.63Z" fill="url(#paint6_linear)"/>
<path id="Vector_8" fill-rule="evenodd" clip-rule="evenodd" d="M1423.88 1707.15C1418.84 1704.62 1377.63 1692.38 1363.29 1686.15C1358.38 1684.02 1322.89 1668.29 1310.14 1663.15C1295.51 1657.26 1253.6 1631.84 1245.29 1627.15C1217.68 1611.57 1110.86 1539 1097.54 1529.15C1055.42 1498.02 932.822 1408.33 913.636 1394.15C898.971 1383.31 785.758 1314.62 777.75 1309.77C760.217 1299.17 748.504 1275.81 728.673 1269.15C709.158 1262.6 668.72 1268.22 576.954 1243.15C562.642 1239.24 487.56 1208.4 470.78 1217.22C463.26 1221.17 367.22 1232.18 367.22 1247.63C367.22 1263.07 437.09 1367.31 444.85 1373.15C484.52 1403.01 534.33 1413.21 581.978 1428.15C656.88 1451.64 733.134 1472.03 802.02 1510.15C824.63 1522.66 885.708 1563.53 895.565 1570.15C911.437 1580.82 998.475 1631.53 1013.56 1638.15C1028.03 1644.5 1089.44 1668.84 1104.98 1676.15C1115.45 1681.08 1127.58 1685.43 1136.87 1692.15C1152.82 1703.7 1183.41 1722.18 1198.52 1752.15C1206.36 1767.7 1173.59 1786.29 1168.76 1790.15C1134.62 1817.4 1152.81 1845.15 1152.81 1845.15C1152.81 1845.15 1166.9 1868.28 1176.2 1875.15C1193.32 1887.81 1273.31 1897.04 1286.75 1899.15C1307.64 1902.43 1328.02 1909.67 1348.4 1915.15C1367.33 1920.24 1452.38 1953.5 1462.15 1959.15C1476.96 1967.73 1491.99 1975.81 1505.73 1986.15C1508.88 1988.52 1535.85 2007.15 1535.85 2007.15C1535.85 2007.15 1536.48 1773.03 1533.38 1765C1531.76 1760.81 1427.29 1708.87 1423.88 1707.15Z" fill="url(#paint7_linear)"/>
</g>
<g id="sun">
<path id="Vector_9" fill-rule="evenodd" clip-rule="evenodd" d="M429.29 184.141C537.176 184.141 624.631 272.499 624.631 381.495C624.631 490.491 537.176 578.85 429.29 578.85C321.41 578.85 233.96 490.491 233.96 381.495C233.96 272.499 321.41 184.141 429.29 184.141Z" fill="url(#paint8_radial)"/>
</g>
</g>
</g>
</g>
<defs>
<radialGradient id="paint0_radial" cx="0" cy="0" r="1" gradientUnits="userSpaceOnUse" gradientTransform="translate(429.29 381.496) rotate(90) scale(556.328 393.148)">
<stop offset="0.152918" stop-color="#DCC07E"/>
<stop offset="0.448692" stop-color="#E7C9BB"/>
</radialGradient>
<linearGradient id="paint1_linear" x1="950.493" y1="381.494" x2="1627.1" y2="2325.83" gradientUnits="userSpaceOnUse">
<stop offset="0.0684105" stop-color="#745B6C"/>
<stop offset="0.722334" stop-color="#2F2632"/>
</linearGradient>
<linearGradient id="paint2_linear" x1="492.389" y1="1017.49" x2="1159.07" y2="1429.38" gradientUnits="userSpaceOnUse">
<stop offset="0.0684105" stop-color="#866F7F"/>
<stop offset="0.722334" stop-color="#2C232F"/>
</linearGradient>
<linearGradient id="paint3_linear" x1="80.7701" y1="795.566" x2="1692.23" y2="1830.37" gradientUnits="userSpaceOnUse">
<stop offset="0.0684105" stop-color="#735B6C"/>
<stop offset="0.790744" stop-color="#2B262C"/>
</linearGradient>
<linearGradient id="paint4_linear" x1="889.678" y1="1770.38" x2="1016.79" y2="631.959" gradientUnits="userSpaceOnUse">
<stop offset="0.102616" stop-color="#2B222E"/>
<stop offset="0.750503" stop-color="#745B6C"/>
</linearGradient>
<linearGradient id="paint5_linear" x1="367.707" y1="1247.63" x2="813.311" y2="2203.65" gradientUnits="userSpaceOnUse">
<stop stop-color="#BA9191"/>
<stop offset="0.392354" stop-color="#875A5A"/>
<stop offset="1" stop-color="#5A2E2E"/>
</linearGradient>
<linearGradient id="paint6_linear" x1="510.867" y1="1247.63" x2="956.471" y2="2203.65" gradientUnits="userSpaceOnUse">
<stop stop-color="#BA9191"/>
<stop offset="0.392354" stop-color="#875A5A"/>
<stop offset="1" stop-color="#5A2E2E"/>
</linearGradient>
<linearGradient id="paint7_linear" x1="543.504" y1="1180.21" x2="661.459" y2="2009.29" gradientUnits="userSpaceOnUse">
<stop offset="0.0684105" stop-color="#745B6C"/>
<stop offset="0.722334" stop-color="#2C232F"/>
</linearGradient>
<radialGradient id="paint8_radial" cx="0" cy="0" r="1" gradientUnits="userSpaceOnUse" gradientTransform="translate(429.294 421.416) rotate(90) scale(529.908)">
<stop offset="0.162978" stop-color="#E0B44F"/>
<stop offset="0.782696" stop-color="#CFBD93"/>
</radialGradient>
<clipPath id="clip0">
<rect x="1536" width="2048" height="1536" transform="rotate(90 1536 0)" fill="white"/>
</clipPath>
</defs>
</svg>
